<?xml version="1.0" encoding="UTF-8" standalone="no"?>
<!DOCTYPE svg PUBLIC "-//W3C//DTD SVG 1.1//EN" "http://www.w3.org/Graphics/SVG/1.1/DTD/svg11.dtd">
<svg width="20" height="20" viewBox="0 0 19 9" version="1.1" xmlns="http://www.w3.org/2000/svg" xmlns:xlink="http://www.w3.org/1999/xlink" xml:space="preserve" style="fill-rule:evenodd;clip-rule:evenodd;stroke-linejoin:round;stroke-miterlimit:1.41421;">
    <g transform="matrix(1,0,0,1,-400.636,-272.044)" fill="#555d66">
        <g>
            <path d="M400.636,272.212L400.636,280.78L403.876,280.78C404.524,280.78 405.028,280.662 405.388,280.426C405.748,280.19 406.018,279.874 406.198,279.478C406.378,279.082 406.488,278.626 406.528,278.11C406.568,277.594 406.588,277.056 406.588,276.496C406.588,275.936 406.568,275.398 406.528,274.882C406.488,274.366 406.378,273.91 406.198,273.514C406.018,273.118 405.748,272.802 405.388,272.566C405.028,272.33 404.524,272.212 403.876,272.212L400.636,272.212ZM402.868,279.172L402.868,273.82L403.312,273.82C403.528,273.82 403.7,273.85 403.828,273.91C403.956,273.97 404.054,274.096 404.122,274.288C404.19,274.48 404.234,274.752 404.254,275.104C404.274,275.456 404.284,275.92 404.284,276.496C404.284,277.072 404.274,277.536 404.254,277.888C404.234,278.24 404.19,278.512 404.122,278.704C404.054,278.896 403.956,279.022 403.828,279.082C403.7,279.142 403.528,279.172 403.312,279.172L402.868,279.172Z" style="fill-rule:nonzero;"/>
            <path d="M410.104,273.964L409.492,277.6L410.74,277.6L410.128,273.964L410.104,273.964ZM411.52,272.212L413.608,280.78L411.232,280.78L411.004,279.28L409.228,279.28L409,280.78L406.66,280.78L408.712,272.212L411.52,272.212Z" style="fill-rule:nonzero;"/>
            <path d="M417.4,274.816L417.4,275.296L419.56,275.296L419.56,274.756C419.56,274.34 419.51,273.966 419.41,273.634C419.31,273.302 419.15,273.018 418.93,272.782C418.71,272.546 418.424,272.364 418.072,272.236C417.72,272.108 417.292,272.044 416.788,272.044C416.212,272.044 415.728,272.122 415.336,272.278C414.944,272.434 414.628,272.688 414.388,273.04C414.148,273.392 413.978,273.852 413.878,274.42C413.778,274.988 413.728,275.68 413.728,276.496C413.728,277.296 413.77,277.978 413.854,278.542C413.938,279.106 414.092,279.566 414.316,279.922C414.54,280.278 414.852,280.532 415.252,280.684C415.652,280.836 416.164,280.912 416.788,280.912C417.148,280.912 417.498,280.874 417.838,280.798C418.178,280.722 418.48,280.574 418.744,280.354C419.008,280.134 419.22,279.832 419.38,279.448C419.54,279.064 419.62,278.572 419.62,277.972L419.62,277.336L417.46,277.336C417.46,277.744 417.45,278.082 417.43,278.35C417.41,278.618 417.376,278.832 417.328,278.992C417.28,279.152 417.212,279.266 417.124,279.334C417.036,279.402 416.924,279.436 416.788,279.436C416.62,279.436 416.486,279.392 416.386,279.304C416.286,279.216 416.21,279.06 416.158,278.836C416.106,278.612 416.072,278.31 416.056,277.93C416.04,277.55 416.032,277.072 416.032,276.496C416.032,275.92 416.04,275.442 416.056,275.062C416.072,274.682 416.106,274.38 416.158,274.156C416.21,273.932 416.286,273.776 416.386,273.688C416.486,273.6 416.62,273.556 416.788,273.556C417.004,273.556 417.16,273.644 417.256,273.82C417.352,273.996 417.4,274.328 417.4,274.816Z" style="fill-rule:nonzero;"/>
        </g>
    </g>
</svg>
